<svg width="58" height="58" viewBox="0 0 58 58" fill="none" xmlns="http://www.w3.org/2000/svg">
<g filter="url(#filter0_d_9_70)">
<circle cx="29" cy="25" r="25" fill="#0067F4"/>
<path d="M23.62 23.79C25.06 26.62 27.38 28.93 30.21 30.38L32.41 28.18C32.68 27.91 33.08 27.82 33.43 27.94C34.55 28.31 35.76 28.51 37 28.51C37.55 28.51 38 28.96 38 29.51V33C38 33.55 37.55 34 37 34C27.61 34 20 26.39 20 17C20 16.45 20.45 16 21 16H24.5C25.05 16 25.5 16.45 25.5 17C25.5 18.25 25.7 19.45 26.07 20.57C26.18 20.92 26.1 21.31 25.82 21.59L23.62 23.79Z" fill="white"/>
</g>
<defs>
<filter id="filter0_d_9_70" x="0" y="0" width="58" height="58" filterUnits="userSpaceOnUse" color-interpolation-filters="sRGB">
<feFlood flood-opacity="0" result="BackgroundImageFix"/>
<feColorMatrix in="SourceAlpha" type="matrix" values="0 0 0 0 0 0 0 0 0 0 0 0 0 0 0 0 0 0 127 0" result="hardAlpha"/>
<feOffset dy="4"/>
<feGaussianBlur stdDeviation="2"/>
<feComposite in2="hardAlpha" operator="out"/>
<feColorMatrix type="matrix" values="0 0 0 0 0 0 0 0 0 0 0 0 0 0 0 0 0 0 0.25 0"/>
<feBlend mode="normal" in2="BackgroundImageFix" result="effect1_dropShadow_9_70"/>
<feBlend mode="normal" in="SourceGraphic" in2="effect1_dropShadow_9_70" result="shape"/>
</filter>
</defs>
</svg>
