<svg width="20" height="21" viewBox="0 0 20 21" fill="none" xmlns="http://www.w3.org/2000/svg">
<path d="M10 0C4.48 0 0 4.67141 0 10.4272C0 16.1831 4.48 20.8545 10 20.8545C15.52 20.8545 20 16.1831 20 10.4272C20 4.67141 15.52 0 10 0ZM10 3.12817C11.66 3.12817 13 4.52542 13 6.25635C13 7.98727 11.66 9.38452 10 9.38452C8.34 9.38452 7 7.98727 7 6.25635C7 4.52542 8.34 3.12817 10 3.12817ZM10 17.9349C7.5 17.9349 5.29 16.6002 4 14.5773C4.03 12.5023 8 11.3657 10 11.3657C11.99 11.3657 15.97 12.5023 16 14.5773C14.71 16.6002 12.5 17.9349 10 17.9349Z" fill="#9D9595"/>
</svg>
