<svg width="101" height="28" viewBox="0 0 101 28" fill="none" xmlns="http://www.w3.org/2000/svg">
<path d="M9.06238 8.32739C7.46579 8.1585 5.87698 8.7699 4.57309 10.0549V0L0 0.206892V3.15717H1.67899V27.0801H4.5671V25.518C5.42918 26.3637 6.42097 26.9226 7.46504 27.1509C8.50911 27.3792 9.57722 27.2708 10.586 26.8342C11.5948 26.3976 12.5169 25.6446 13.2805 24.6339C14.044 23.6233 14.6283 22.3823 14.9877 21.0079C15.3471 19.6335 15.4719 18.1629 15.3523 16.7109C15.2328 15.2588 14.8721 13.8646 14.2985 12.637C13.7249 11.4094 12.9539 10.3818 12.0456 9.6342C11.1373 8.88663 10.1163 8.43939 9.06238 8.32739V8.32739ZM11.1679 21.8953L11.4028 24.7773L9.51879 23.1015C8.57583 23.4341 7.57738 23.277 6.71257 22.66C5.84777 22.043 5.17666 21.0089 4.82638 19.7536C4.47611 18.4983 4.47098 17.109 4.81197 15.8488C5.15297 14.5887 5.81641 13.5452 6.67661 12.916C7.53682 12.2868 8.53406 12.1156 9.47943 12.4349C10.4248 12.7542 11.2526 13.5418 11.8062 14.6484C12.3597 15.755 12.6004 17.1039 12.4828 18.4395C12.3651 19.7751 11.8973 21.0047 11.1679 21.8953V21.8953Z" fill="white"/>
<path d="M25.0143 27.0325H27.9159V8.48254L23.3443 8.68944V11.6418H25.0233V19.7644C25.0233 21.5395 24.103 23.1243 22.828 23.3519C22.4712 23.4166 22.1084 23.3753 21.7641 23.2309C21.4197 23.0864 21.1015 22.842 20.8309 22.514C20.5602 22.186 20.3433 21.782 20.1945 21.3289C20.0458 20.8758 19.9687 20.384 19.9683 19.8864V8.48254L15.4132 8.68944V11.6418H17.0922V19.8864C17.0965 21.8704 17.6685 23.7713 18.6832 25.1742C19.6979 26.577 21.0728 27.3678 22.5078 27.3738V27.3738C23.3894 27.3743 24.2574 27.0744 25.0353 26.5007V26.5007" fill="white"/>
<path d="M53.5991 8.68945C52.7175 8.68903 51.8495 8.98889 51.0717 9.56254V8.70807L46.5031 8.91497V11.8652H48.185V27.1959H51.0746V16.2907C51.0746 14.5155 51.995 12.9307 53.2699 12.7052C53.6268 12.6405 53.9895 12.6817 54.3339 12.8262C54.6783 12.9707 54.9964 13.2151 55.2671 13.5431C55.5377 13.8711 55.7547 14.2751 55.9034 14.7282C56.0521 15.1813 56.1292 15.6731 56.1296 16.1707V27.198H59.0177V16.1686C59.0118 14.1854 58.4387 12.2859 57.4235 10.8847C56.4084 9.48351 55.0336 8.69435 53.5991 8.68945V8.68945Z" fill="white"/>
<path d="M40.0923 8.69163V11.6419H41.7698V27.0802H44.6594V8.48474L40.0923 8.69163Z" fill="white"/>
<path d="M42.9385 5.63984C43.9303 5.63984 44.7342 4.5283 44.7342 3.15714C44.7342 1.78598 43.9303 0.674438 42.9385 0.674438C41.9468 0.674438 41.1428 1.78598 41.1428 3.15714C41.1428 4.5283 41.9468 5.63984 42.9385 5.63984Z" fill="white"/>
<path d="M34.7606 15.8437C32.2436 15.1361 32.2436 14.472 32.2436 13.9816V13.9423C32.2436 13.1375 32.9798 12.2706 34.1695 12.2706C35.1705 12.2841 36.1408 12.7507 36.9319 13.5989L38.6648 10.4624C37.3837 9.10811 35.8136 8.38039 34.2009 8.39348C31.5073 8.39348 29.4019 10.8452 29.4019 13.9796V14.0065C29.4019 17.8236 31.7962 19.007 34.1246 19.6608C36.688 20.3808 36.688 21.047 36.688 21.5828V21.6263C36.688 22.8862 35.6405 23.449 34.593 23.449C33.9943 23.4557 33.4008 23.2968 32.8472 22.9816C32.2937 22.6665 31.7913 22.2014 31.3697 21.6139L29.3899 24.4524C30.7761 26.3087 32.6317 27.3435 34.5616 27.3365C37.4407 27.3365 39.5312 24.9262 39.5312 21.6056V21.5621C39.5282 17.7036 37.1115 16.5057 34.7606 15.8437Z" fill="white"/>
<path d="M80.466 15.8437C77.949 15.1361 77.949 14.472 77.949 13.9816V13.9423C77.949 13.1375 78.6853 12.2706 79.8749 12.2706C80.876 12.2841 81.8463 12.7507 82.6373 13.5989L84.3702 10.4624C83.0891 9.10811 81.519 8.38039 79.9064 8.39348C77.2128 8.39348 75.1073 10.8452 75.1073 13.9796V14.0065C75.1073 17.8236 77.5016 19.007 79.83 19.6608C82.3934 20.3808 82.3934 21.047 82.3934 21.5828V21.6263C82.3934 22.8862 81.3459 23.449 80.2984 23.449C79.6982 23.4571 79.1029 23.2987 78.5477 22.9831C77.9925 22.6675 77.4887 22.2012 77.0661 21.6118L75.0864 24.4503C76.4726 26.3066 78.3282 27.3414 80.258 27.3344C83.1372 27.3344 85.2277 24.9241 85.2277 21.6035V21.5601C85.2337 17.7036 82.8229 16.5057 80.466 15.8437Z" fill="white"/>
<path d="M91.5576 15.8437C89.0376 15.134 89.0376 14.4699 89.0376 13.9858V13.9423C89.0376 13.1375 89.7738 12.2706 90.9635 12.2706C91.9645 12.2841 92.9348 12.7507 93.7259 13.5989L95.4588 10.4624C94.1777 9.10811 92.6076 8.38039 90.9949 8.39348C88.3014 8.39348 86.1959 10.8452 86.1959 13.9796V14.0065C86.1959 17.8236 88.5902 19.007 90.9186 19.6608C93.482 20.3808 93.482 21.047 93.482 21.5828V21.6263C93.482 22.8862 92.4345 23.449 91.387 23.449C90.7884 23.4557 90.1948 23.2968 89.6412 22.9816C89.0877 22.6665 88.5853 22.2014 88.1637 21.6139L86.1839 24.4524C87.5701 26.3087 89.4257 27.3435 91.3556 27.3365C94.2347 27.3365 96.3252 24.9262 96.3252 21.6056V21.5621C96.3252 17.7036 93.9145 16.5057 91.5576 15.8437Z" fill="white"/>
<path d="M97.8665 12.7753C97.8665 12.2179 98.0267 11.6833 98.3118 11.2892C98.5969 10.895 98.9836 10.6736 99.3868 10.6736C99.7901 10.6736 100.177 10.895 100.462 11.2892C100.747 11.6833 100.907 12.2179 100.907 12.7753C100.917 13.0805 100.877 13.3848 100.79 13.6656C100.703 13.9463 100.571 14.1964 100.404 14.3972L99.9555 13.82C100.068 13.6924 100.16 13.5318 100.222 13.3498C100.285 13.1677 100.318 12.9688 100.319 12.7671C100.319 12.0906 99.9001 11.5983 99.3868 11.5983C98.8736 11.5983 98.4426 12.0989 98.4426 12.8126C98.4464 13.0135 98.4808 13.2111 98.5434 13.3925C98.6061 13.5739 98.6956 13.7351 98.8062 13.8655L98.4082 14.4261C98.2332 14.2259 98.0934 13.9731 97.9996 13.6871C97.9057 13.4011 97.8602 13.0893 97.8665 12.7753V12.7753Z" fill="white"/>
<path d="M97.8665 17.4326C97.8607 17.1528 97.8955 16.8743 97.9689 16.6134C98.0423 16.3526 98.1528 16.1147 98.2939 15.9139C98.4349 15.7131 98.6036 15.5535 98.7901 15.4444C98.9765 15.3353 99.1769 15.279 99.3794 15.2789C99.6917 15.264 100 15.3786 100.265 15.608C100.53 15.8374 100.739 16.171 100.866 16.566C100.992 16.961 101.031 17.3994 100.976 17.8247C100.921 18.2501 100.775 18.6429 100.557 18.9529C100.339 19.2629 100.06 19.4757 99.7537 19.5641C99.4478 19.6525 99.1298 19.6124 98.8405 19.4489C98.5512 19.2855 98.3039 19.0061 98.1303 18.6468C97.9567 18.2875 97.8649 17.8647 97.8665 17.4326V17.4326ZM100.322 17.4326C100.322 16.6878 99.9031 16.2099 99.3898 16.2099C99.2681 16.2012 99.1463 16.2268 99.032 16.2853C98.9176 16.3438 98.8131 16.4338 98.7247 16.55C98.6364 16.6661 98.5661 16.8059 98.5181 16.9609C98.4701 17.1158 98.4454 17.2827 98.4456 17.4512C98.4456 18.2043 98.8646 18.6822 99.3779 18.6822C99.4999 18.6904 99.6218 18.6641 99.7362 18.6048C99.8506 18.5456 99.9551 18.4547 100.043 18.3377C100.131 18.2207 100.201 18.0801 100.249 17.9245C100.296 17.7689 100.32 17.6015 100.319 17.4326H100.322Z" fill="white"/>
<path d="M100.903 25.5077C100.903 26.3911 100.5 26.9311 99.7879 26.9311H97.9278V26.0001H99.5844C100.048 26.0001 100.297 25.7001 100.297 25.1725C100.297 24.6449 100.042 24.3036 99.5739 24.3036H97.9278V23.3787H99.5889C100.038 23.3787 100.295 23.0705 100.295 22.5512C100.295 22.0319 100.02 21.6822 99.5664 21.6822H97.9203V20.7512H100.835V21.6822H100.386C100.54 21.8118 100.668 21.9942 100.756 22.2117C100.844 22.4291 100.89 22.6743 100.889 22.9236C100.898 23.1722 100.854 23.419 100.763 23.6336C100.672 23.8482 100.537 24.0214 100.376 24.1318C100.539 24.2839 100.672 24.4889 100.764 24.7288C100.856 24.9687 100.903 25.2362 100.903 25.5077Z" fill="white"/>
<path d="M98.2929 9.63061C98.5309 9.63061 98.7239 9.36202 98.7239 9.0307C98.7239 8.69938 98.5309 8.43079 98.2929 8.43079C98.0549 8.43079 97.8619 8.69938 97.8619 9.0307C97.8619 9.36202 98.0549 9.63061 98.2929 9.63061Z" fill="white"/>
<path d="M74.0358 19.4478C74.1988 18.1542 74.1656 16.8279 73.9385 15.5529C73.7114 14.2778 73.2953 13.0819 72.7165 12.0408C72.1377 10.9997 71.4088 10.1362 70.576 9.50483C69.7433 8.87348 68.8247 8.4881 67.8786 8.37311C66.9325 8.25811 65.9794 8.41601 65.0797 8.83678C64.1801 9.25756 63.3534 9.93206 62.6521 10.8176C61.9508 11.7031 61.3901 12.7803 61.0056 13.9809C60.6211 15.1816 60.4211 16.4796 60.4183 17.7927C60.4183 17.7927 60.4183 17.8072 60.4183 17.8134C60.4183 17.861 60.4183 17.9065 60.4183 17.9541C60.4183 18.0493 60.4183 18.1424 60.4183 18.2375C60.4183 18.3327 60.4273 18.4444 60.4332 18.552C60.4332 18.5872 60.4332 18.6244 60.4332 18.6596C60.4332 18.7692 60.4497 18.8789 60.4602 18.9865C60.4602 19.0216 60.4602 19.0589 60.4706 19.0941C60.4796 19.1892 60.4901 19.2844 60.5021 19.3796C60.5021 19.4044 60.5021 19.4271 60.5096 19.452C61.0932 23.8981 64.0037 27.2787 67.5099 27.2787C68.7187 27.2908 69.9102 26.8798 70.9732 26.0839C72.0363 25.2881 72.9364 24.1333 73.5899 22.7271L71.1088 20.6892C70.7121 21.495 70.1777 22.1529 69.5531 22.6048C68.9284 23.0566 68.2328 23.2884 67.5278 23.2795C65.6408 23.2795 64.0396 21.6657 63.5024 19.4458H74.0343L74.0358 19.4478ZM67.2809 12.3121C68.1227 12.3124 68.9426 12.6833 69.6217 13.3711C70.3009 14.059 70.8039 15.0279 71.0579 16.1376H63.5054C63.7593 15.0283 64.2621 14.0595 64.9409 13.3718C65.6198 12.684 66.4393 12.3128 67.2809 12.3121V12.3121Z" fill="white"/>
</svg>
