<svg width="103" height="181" viewBox="0 0 103 181" fill="none" xmlns="http://www.w3.org/2000/svg">
<path d="M80.1111 34.2432C84.8606 34.2432 88.6944 28.7806 88.6944 22.0135C88.6944 13.8604 80.1111 0 80.1111 0C80.1111 0 71.5278 13.8604 71.5278 22.0135C71.5278 28.7806 75.3617 34.2432 80.1111 34.2432ZM51.5 34.2432C56.2494 34.2432 60.0833 28.7806 60.0833 22.0135C60.0833 13.8604 51.5 0 51.5 0C51.5 0 42.9167 13.8604 42.9167 22.0135C42.9167 28.7806 46.7506 34.2432 51.5 34.2432ZM22.8889 34.2432C27.6383 34.2432 31.4722 28.7806 31.4722 22.0135C31.4722 13.8604 22.8889 0 22.8889 0C22.8889 0 14.3056 13.8604 14.3056 22.0135C14.3056 28.7806 18.1394 34.2432 22.8889 34.2432ZM91.0978 58.7842C89.9533 53.9739 86.7489 50.5495 82.9722 50.5495H20.0278C16.2511 50.5495 13.1039 53.9739 11.9022 58.7842L0 107.622V172.847C0 177.331 2.575 181 5.72222 181H11.4444C14.5917 181 17.1667 177.331 17.1667 172.847V164.694H85.8333V172.847C85.8333 177.331 88.4083 181 91.5556 181H97.2778C100.425 181 103 177.331 103 172.847V107.622L91.0978 58.7842ZM20.0278 140.234C15.2783 140.234 11.4444 134.772 11.4444 128.005C11.4444 121.237 15.2783 115.775 20.0278 115.775C24.7772 115.775 28.6111 121.237 28.6111 128.005C28.6111 134.772 24.7772 140.234 20.0278 140.234ZM82.9722 140.234C78.2228 140.234 74.3889 134.772 74.3889 128.005C74.3889 121.237 78.2228 115.775 82.9722 115.775C87.7217 115.775 91.5556 121.237 91.5556 128.005C91.5556 134.772 87.7217 140.234 82.9722 140.234ZM11.4444 99.4685L20.0278 62.7793H82.9722L91.5556 99.4685H11.4444Z" fill="url(#paint0_linear_6_59)"/>
<defs>
<linearGradient id="paint0_linear_6_59" x1="0" y1="90.5" x2="103" y2="90.5" gradientUnits="userSpaceOnUse">
<stop stop-color="#B8CBB8"/>
<stop stop-color="#B8CBB8"/>
<stop stop-color="#B465DA"/>
<stop offset="0.33" stop-color="#CF6CC9"/>
<stop offset="0.66" stop-color="#EE609C"/>
<stop offset="1" stop-color="#EE609C"/>
</linearGradient>
</defs>
</svg>
