<svg width="173" height="157" viewBox="0 0 173 157" fill="none" xmlns="http://www.w3.org/2000/svg">
<path d="M138.756 50.6455C135.254 50.6431 131.772 51.4785 128.433 53.1223L120.506 22.3433V8.66372H132.851C133.162 8.66372 133.461 8.85588 133.681 9.19794C133.901 9.54 134.025 10.0039 134.025 10.4877C134.025 10.9714 133.901 11.4353 133.681 11.7774C133.461 12.1194 133.162 12.3116 132.851 12.3116C132.194 12.3116 131.564 12.7167 131.1 13.4377C130.636 14.1587 130.375 15.1367 130.375 16.1564C130.375 17.1761 130.636 18.154 131.1 18.8751C131.564 19.5961 132.194 20.0012 132.851 20.0012C134.47 20.1015 136.049 19.1987 137.239 17.4913C138.43 15.7839 139.135 13.4119 139.2 10.897C139.264 8.38212 138.683 5.93037 137.584 4.08114C136.484 2.2319 134.957 1.13665 133.338 1.03633C133.173 0.982503 133.006 0.954726 132.837 0.953424H118.358H118.191H118.024C117.367 0.953424 116.738 1.3585 116.273 2.07954C115.809 2.80057 115.548 3.77851 115.548 4.79821V19.2446H57.3559L54.7802 9.63787H66.324C67.1469 9.63787 67.9361 9.13016 68.518 8.22644C69.0999 7.32271 69.4268 6.097 69.4268 4.81893C69.4268 3.54087 69.0999 2.31516 68.518 1.41143C67.9361 0.507708 67.1469 0 66.324 0L43.8036 0C42.9807 0 42.1915 0.507708 41.6096 1.41143C41.0277 2.31516 40.7008 3.54087 40.7008 4.81893C40.7008 6.097 41.0277 7.32271 41.6096 8.22644C42.1915 9.13016 42.9807 9.63787 43.8036 9.63787H49.4087L53.0253 23.1102L44.9046 53.2985C38.1309 49.8491 30.8328 49.7695 24.0285 53.0707C17.2243 56.372 11.2532 62.8895 6.94822 71.714C2.64327 80.5385 0.219197 91.2298 0.0141699 102.297C-0.190857 113.363 1.83339 124.253 5.80451 133.448C9.77563 142.642 15.4956 149.682 22.1664 153.585C28.8372 157.489 36.1261 158.061 43.0163 155.222C49.9066 152.384 56.0545 146.275 60.6023 137.75C65.1502 129.224 67.8712 118.707 68.3858 107.664H77.414C77.5799 107.663 77.7454 107.635 77.9078 107.581H77.9411L78.0746 107.519L78.3014 107.405H78.3748H78.4416L78.6084 107.271C78.6751 107.208 78.7485 107.167 78.8152 107.094L78.8953 106.991L79.0488 106.794C79.0955 106.732 79.1422 106.68 79.1822 106.618C79.2223 106.555 79.2556 106.473 79.2957 106.4L79.3757 106.276L117.337 30.7997L123.843 55.9618C116.275 61.6609 110.324 71.4876 107.125 83.5668C103.925 95.646 103.702 109.132 106.496 121.451C109.291 133.77 114.908 144.06 122.276 150.357C129.644 156.654 138.247 158.517 146.443 155.591C154.639 152.665 161.855 145.154 166.713 134.492C171.57 123.83 173.731 110.764 172.781 97.7862C171.831 84.8084 167.838 72.828 161.564 64.1312C155.289 55.4344 147.173 50.6301 138.763 50.6351L138.756 50.6455ZM112.946 26.9446L78.0679 96.2751L59.4244 26.9446H112.946ZM55.7077 33.0589L73.724 99.9748H68.3858C67.9495 90.7615 65.9773 81.8829 62.663 74.2117C59.3486 66.5405 54.8062 60.3404 49.4821 56.2209L55.7077 33.0589ZM60.9324 99.9748H37.7248L46.6128 66.9158C50.587 70.1314 53.9795 74.8413 56.4807 80.6159C58.982 86.3904 60.5124 93.0458 60.9324 99.9748ZM34.2417 145.459C30.3869 145.462 26.5771 144.173 23.0721 141.681C19.567 139.19 16.4492 135.553 13.9311 131.02C11.413 126.487 9.55385 121.164 8.48047 115.414C7.40708 109.664 7.14467 103.622 7.71113 97.7006C8.27759 91.7788 9.6596 86.1163 11.7629 81.0992C13.8663 76.0821 16.6414 71.8284 19.8993 68.6282C23.1571 65.428 26.8209 63.3564 30.641 62.5548C34.4611 61.7531 38.3475 62.2403 42.0354 63.983L31.7594 102.317V102.4C31.6524 102.794 31.5958 103.216 31.5926 103.643C31.5926 103.643 31.5926 103.747 31.5926 103.799C31.592 104.053 31.6077 104.306 31.6393 104.555C31.6608 104.696 31.6876 104.834 31.7194 104.97C31.7194 105.074 31.7528 105.167 31.7794 105.27C31.8189 105.406 31.8635 105.537 31.9129 105.664C31.9129 105.747 31.9663 105.84 32.0063 105.923C32.0562 106.031 32.1097 106.135 32.1665 106.234C32.2132 106.327 32.2599 106.421 32.3133 106.504C32.383 106.607 32.4565 106.704 32.5335 106.794C32.5802 106.856 32.6269 106.929 32.6803 106.98C32.8167 107.123 32.962 107.245 33.114 107.343H33.1874C33.467 107.521 33.7661 107.612 34.0682 107.613H60.9324C60.3176 117.949 57.2416 127.557 52.3064 134.556C47.3712 141.556 40.9319 145.444 34.2483 145.459H34.2417ZM138.749 145.459C132.716 145.486 126.853 142.348 122.11 136.554C117.368 130.76 114.024 122.65 112.619 113.536C111.215 104.422 111.832 94.8391 114.372 86.3385C116.911 77.8378 121.224 70.9175 126.612 66.6982L136.521 105.25C136.642 105.719 136.821 106.146 137.048 106.507C137.275 106.868 137.546 107.157 137.845 107.355C138.144 107.554 138.465 107.659 138.79 107.665C139.116 107.671 139.438 107.578 139.74 107.39C140.042 107.202 140.317 106.924 140.55 106.571C140.782 106.218 140.968 105.797 141.096 105.333C141.224 104.868 141.292 104.37 141.296 103.865C141.299 103.359 141.239 102.858 141.118 102.389L131.182 63.8898C134.87 62.2066 138.747 61.7748 142.552 62.6235C146.356 63.4722 149.998 65.5816 153.232 68.8086C156.465 72.0356 159.213 76.3048 161.291 81.3267C163.369 86.3485 164.727 92.0055 165.273 97.9141C165.819 103.823 165.541 109.844 164.457 115.571C163.373 121.298 161.508 126.596 158.99 131.105C156.472 135.615 153.359 139.23 149.862 141.707C146.365 144.184 142.566 145.463 138.723 145.459H138.749Z" fill="#00FF38"/>
</svg>
