<svg width="86" height="86" viewBox="0 0 86 86" fill="none" xmlns="http://www.w3.org/2000/svg">
<path d="M75.25 10.75H10.75C6.80833 10.75 3.58333 13.975 3.58333 17.9167V60.9167C3.58333 64.8583 6.80833 68.0833 10.75 68.0833H28.6667V75.25H57.3333V68.0833H75.25C79.1917 68.0833 82.3808 64.8583 82.3808 60.9167L82.4166 17.9167C82.4166 13.975 79.1917 10.75 75.25 10.75ZM75.25 60.9167H10.75V17.9167H75.25V60.9167Z" fill="white"/>
<g clip-path="url(#clip0_11_49)">
<path d="M37.3333 47.8H40V32.2H37.3333V47.8ZM42.6667 53H45.3333V27H42.6667V53ZM32 42.6H34.6667V37.4H32V42.6ZM48 47.8H50.6667V32.2H48V47.8ZM53.3333 37.4V42.6H56V37.4H53.3333Z" fill="white"/>
</g>
<defs>
<clipPath id="clip0_11_49">
<rect width="21.5" height="21.5" fill="white" transform="translate(32.25 26.875)"/>
</clipPath>
</defs>
</svg>
