<svg width="19" height="16" viewBox="0 0 19 16" fill="none" xmlns="http://www.w3.org/2000/svg">
<path d="M19 1.89294C18.3011 2.21427 17.5505 2.4315 16.7613 2.52914C17.5668 2.02936 18.1838 1.23739 18.4752 0.294802C17.71 0.765692 16.8727 1.0972 15.9995 1.27492C15.2888 0.490033 14.2755 0 13.1544 0C11.0025 0 9.25725 1.80765 9.25725 4.03876C9.25725 4.35488 9.29162 4.66329 9.35767 4.9594C6.11826 4.7907 3.24631 3.18282 1.32396 0.739637C0.988291 1.33633 0.796157 2.03009 0.796157 2.7703C0.796157 4.17133 1.48435 5.40746 2.53004 6.13157C1.91101 6.11169 1.30556 5.93855 0.764311 5.62662V5.67766C0.764311 7.63466 2.10764 9.26647 3.89083 9.6376C3.56326 9.7306 3.21949 9.77919 2.86385 9.77919C2.6124 9.77919 2.36845 9.75453 2.13013 9.70808C2.62614 11.3121 4.06561 12.4797 5.77072 12.5127C4.43674 13.5962 2.75589 14.2421 0.930284 14.2421C0.615846 14.2421 0.30508 14.2227 0 14.1846C1.72518 15.3308 3.77356 16 5.97477 16C13.1438 16 17.0645 9.84581 17.0645 4.50883C17.0645 4.33361 17.0608 4.1597 17.0526 3.98642C17.8165 3.41389 18.4759 2.705 19 1.89294Z" fill="white"/>
</svg>
